<?xml version="1.0" encoding="utf-8"?>
<svg viewBox="0 0 13 13" width="13" height="13" xmlns="http://www.w3.org/2000/svg">
  <path class="logo-pri" fill="#CED0D6" d="M 10.615 9.299 C 10.568 9.208 10.568 9.1 10.615 9.012 C 10.675 8.904 10.729 8.796 10.781 8.681 C 10.815 8.6 10.759 8.508 10.667 8.508 L 9.689 8.508 C 9.589 8.508 9.494 8.56 9.442 8.642 C 9.316 8.834 9.168 9.022 9.003 9.186 C 8.372 9.817 7.538 10.16 6.652 10.16 C 5.76 10.16 4.925 9.813 4.298 9.186 C 3.664 8.56 3.322 7.725 3.322 6.834 C 3.322 5.943 3.669 5.108 4.295 4.482 C 4.925 3.853 5.76 3.509 6.647 3.509 C 7.538 3.509 8.372 3.856 8.998 4.482 C 9.168 4.653 9.311 4.834 9.437 5.026 C 9.494 5.108 9.585 5.161 9.685 5.161 L 10.667 5.161 C 10.759 5.161 10.815 5.069 10.781 4.987 C 10.729 4.874 10.675 4.764 10.615 4.656 C 10.568 4.565 10.568 4.457 10.615 4.37 L 10.946 3.769 C 11.011 3.652 10.988 3.509 10.893 3.414 L 10.063 2.584 C 9.967 2.488 9.825 2.469 9.707 2.53 L 9.103 2.866 C 9.011 2.914 8.903 2.914 8.816 2.866 C 8.529 2.709 8.224 2.584 7.912 2.492 C 7.812 2.461 7.734 2.388 7.707 2.287 L 7.516 1.628 C 7.477 1.501 7.364 1.41 7.228 1.41 L 6.056 1.41 C 5.92 1.41 5.802 1.496 5.768 1.628 L 5.577 2.287 C 5.547 2.388 5.473 2.461 5.373 2.492 C 5.06 2.584 4.756 2.709 4.469 2.866 C 4.377 2.914 4.269 2.918 4.181 2.866 L 3.577 2.53 C 3.46 2.465 3.316 2.488 3.221 2.584 L 2.39 3.414 C 2.296 3.509 2.278 3.652 2.339 3.769 L 2.673 4.373 C 2.721 4.465 2.721 4.574 2.673 4.661 C 2.517 4.948 2.39 5.252 2.299 5.565 C 2.268 5.665 2.195 5.743 2.096 5.77 L 1.434 5.961 C 1.308 6 1.217 6.112 1.217 6.248 L 1.217 7.421 C 1.217 7.557 1.304 7.674 1.434 7.708 L 2.096 7.899 C 2.195 7.93 2.268 8.004 2.299 8.104 C 2.39 8.416 2.517 8.72 2.673 9.008 C 2.721 9.1 2.726 9.208 2.673 9.295 L 2.339 9.9 C 2.274 10.016 2.296 10.16 2.39 10.255 L 3.221 11.086 C 3.316 11.181 3.46 11.199 3.577 11.138 L 4.181 10.803 C 4.273 10.755 4.382 10.755 4.469 10.803 C 4.756 10.96 5.06 11.086 5.373 11.177 C 5.473 11.208 5.551 11.282 5.577 11.381 L 5.768 12.042 C 5.807 12.168 5.92 12.259 6.056 12.259 L 7.228 12.259 C 7.364 12.259 7.482 12.172 7.516 12.042 L 7.707 11.381 C 7.737 11.282 7.812 11.208 7.912 11.177 C 8.224 11.086 8.529 10.96 8.816 10.803 C 8.907 10.755 9.015 10.75 9.103 10.803 L 9.707 11.138 C 9.825 11.203 9.967 11.181 10.063 11.086 L 10.893 10.255 C 10.988 10.16 11.007 10.016 10.946 9.9 L 10.615 9.299 Z" style=""/>
  <path class="logo-sec" fill="#CED0D6" d="M 4.655 5.143 L 8.685 5.143 L 8.685 5.891 L 4.655 5.891 L 4.655 5.143 Z M 4.655 6.473 L 7.977 6.473 L 7.977 7.221 L 4.655 7.221 L 4.655 6.473 Z M 4.655 7.803 L 8.685 7.803 L 8.685 8.551 L 4.655 8.551 L 4.655 7.803 Z" style=""/>
</svg>