<?xml version="1.0" encoding="utf-8"?>
<svg viewBox="0 0 40 40" xmlns="http://www.w3.org/2000/svg">
  <path class="logo-pri" fill="#67c52a" d="M 32.957 27.238 C 32.816 26.966 32.816 26.642 32.957 26.383 C 33.139 26.059 33.295 25.735 33.45 25.398 C 33.553 25.152 33.386 24.88 33.113 24.88 L 30.199 24.88 C 29.9 24.88 29.616 25.035 29.46 25.281 C 29.084 25.851 28.644 26.409 28.151 26.9 C 26.273 28.78 23.785 29.803 21.142 29.803 C 18.487 29.803 15.999 28.767 14.133 26.9 C 12.241 25.035 11.218 22.548 11.218 19.892 C 11.218 17.236 12.254 14.748 14.12 12.883 C 15.999 11.005 18.487 9.98 21.129 9.98 C 23.785 9.98 26.273 11.017 28.138 12.883 C 28.644 13.388 29.071 13.932 29.447 14.502 C 29.616 14.748 29.887 14.904 30.185 14.904 L 33.113 14.904 C 33.386 14.904 33.553 14.632 33.45 14.386 C 33.295 14.049 33.139 13.725 32.957 13.401 C 32.816 13.129 32.816 12.805 32.957 12.546 L 33.942 10.758 C 34.137 10.409 34.072 9.98 33.787 9.696 L 31.312 7.221 C 31.028 6.936 30.6 6.884 30.25 7.066 L 28.45 8.063 C 28.177 8.206 27.854 8.206 27.594 8.063 C 26.739 7.596 25.833 7.221 24.899 6.949 C 24.601 6.859 24.368 6.638 24.291 6.34 L 23.72 4.371 C 23.603 3.995 23.267 3.723 22.866 3.723 L 19.367 3.723 C 18.966 3.723 18.615 3.982 18.512 4.371 L 17.942 6.34 C 17.852 6.638 17.631 6.859 17.333 6.949 C 16.4 7.221 15.494 7.596 14.638 8.063 C 14.366 8.206 14.042 8.219 13.783 8.063 L 11.982 7.066 C 11.632 6.871 11.205 6.936 10.92 7.221 L 8.445 9.696 C 8.161 9.98 8.109 10.409 8.291 10.758 L 9.288 12.558 C 9.43 12.831 9.43 13.154 9.288 13.414 C 8.821 14.269 8.445 15.176 8.174 16.109 C 8.082 16.407 7.862 16.64 7.565 16.717 L 5.595 17.288 C 5.219 17.405 4.948 17.741 4.948 18.142 L 4.948 21.641 C 4.948 22.042 5.207 22.393 5.595 22.496 L 7.565 23.066 C 7.862 23.157 8.082 23.377 8.174 23.675 C 8.445 24.608 8.821 25.514 9.288 26.37 C 9.43 26.642 9.443 26.966 9.288 27.225 L 8.291 29.026 C 8.096 29.376 8.161 29.803 8.445 30.088 L 10.92 32.563 C 11.205 32.847 11.632 32.9 11.982 32.718 L 13.783 31.721 C 14.055 31.578 14.379 31.578 14.638 31.721 C 15.494 32.187 16.4 32.563 17.333 32.834 C 17.631 32.926 17.865 33.146 17.942 33.443 L 18.512 35.413 C 18.628 35.788 18.966 36.06 19.367 36.06 L 22.866 36.06 C 23.267 36.06 23.617 35.801 23.72 35.413 L 24.291 33.443 C 24.381 33.146 24.601 32.926 24.899 32.834 C 25.833 32.563 26.739 32.187 27.594 31.721 C 27.866 31.578 28.19 31.565 28.45 31.721 L 30.25 32.718 C 30.6 32.913 31.028 32.847 31.312 32.563 L 33.787 30.088 C 34.072 29.803 34.124 29.376 33.942 29.026 L 32.957 27.238 Z" style=""/>
  <path class="logo-sec" fill="#3c3c3f" d="M 15.195 14.852 L 27.206 14.852 L 27.206 17.08 L 15.195 17.08 L 15.195 14.852 Z M 15.195 18.817 L 25.094 18.817 L 25.094 21.045 L 15.195 21.045 L 15.195 18.817 Z M 15.195 22.781 L 27.206 22.781 L 27.206 25.009 L 15.195 25.009 L 15.195 22.781 Z" style=""/>
</svg>